<svg width="45" height="45" viewBox="0 0 45 45" fill="none" xmlns="http://www.w3.org/2000/svg">
<path d="M10.1434 3.75H34.8371C36.8996 3.75 38.5871 5.45623 38.5871 7.53748V11.7C38.5871 13.2187 37.6496 15.1125 36.7121 16.05L28.6684 23.25C27.5434 24.2062 26.7934 26.1 26.7934 27.6V35.7375C26.7934 36.8812 26.0434 38.3812 25.1059 38.9625L22.4996 40.6875C20.0621 42.2063 16.7059 40.5 16.7059 37.4625V27.4313C16.7059 26.1 15.9559 24.3938 15.2059 23.4563L8.09961 15.8813C7.16211 14.925 6.41211 13.2375 6.41211 12.0938V7.74376C6.41211 5.45626 8.09961 3.75 10.1434 3.75Z" fill="#337354"/>
<path d="M31.6504 18.75C26.7379 18.75 22.7441 22.7438 22.7441 27.6562C22.7441 29.325 23.2129 30.9 24.0379 32.25C25.5754 34.8375 28.4066 36.5625 31.6504 36.5625C34.8941 36.5625 37.7254 34.8188 39.2629 32.25C40.0879 30.9188 40.5566 29.325 40.5566 27.6562C40.5566 22.7438 36.5816 18.75 31.6504 18.75ZM34.9879 29.025H33.0566V31.0312C33.0566 31.8 32.4191 32.4375 31.6504 32.4375C30.8816 32.4375 30.2441 31.8 30.2441 31.0312V29.025H28.3316C27.5629 29.025 26.9254 28.3875 26.9254 27.6188C26.9254 26.85 27.5629 26.2125 28.3316 26.2125H30.2441V24.375C30.2441 23.6063 30.8816 22.9688 31.6504 22.9688C32.4191 22.9688 33.0566 23.6063 33.0566 24.375V26.2125H34.9879C35.7566 26.2125 36.3941 26.85 36.3941 27.6188C36.3941 28.3875 35.7566 29.025 34.9879 29.025Z" fill="#FFBB00"/>
</svg>
