<svg width="46" height="45" viewBox="0 0 46 45" fill="none" xmlns="http://www.w3.org/2000/svg">
<path d="M41.6107 33.6001V35.4667C41.6107 38.5467 41.6107 41.0667 36.0107 41.0667H9.87734C4.27734 41.0667 4.27734 38.5467 4.27734 35.4667V33.6001C4.27734 32.5734 5.11734 31.7334 6.14401 31.7334H39.744C40.7707 31.7334 41.6107 32.5734 41.6107 33.6001Z" fill="#FFE69B"/>
<path d="M39.2765 24.2666V31.7333H6.70312V24.2666C6.70312 17.0986 11.7618 11.1066 18.5005 9.66925C19.5085 9.44525 20.5538 9.33325 21.6365 9.33325H24.3431C25.4258 9.33325 26.4898 9.44525 27.4978 9.66925C34.2365 11.1253 39.2765 17.0986 39.2765 24.2666Z" fill="#FFC107"/>
<path d="M27.6663 8.40006C27.6663 8.84806 27.6103 9.25873 27.4983 9.6694C26.4903 9.4454 25.4263 9.3334 24.3437 9.3334H21.637C20.5543 9.3334 19.509 9.4454 18.501 9.6694C18.389 9.25873 18.333 8.84806 18.333 8.40006C18.333 5.82406 20.4237 3.7334 22.9997 3.7334C25.5757 3.7334 27.6663 5.82406 27.6663 8.40006Z" fill="#FFE69B"/>
<path d="M28.6 21.9333H17.4C16.6347 21.9333 16 21.2986 16 20.5333C16 19.768 16.6347 19.1333 17.4 19.1333H28.6C29.3653 19.1333 30 19.768 30 20.5333C30 21.2986 29.3653 21.9333 28.6 21.9333Z" fill="#FFE69B"/>
</svg>
