<svg width="40" height="40" viewBox="0 0 40 40" fill="none" xmlns="http://www.w3.org/2000/svg">
<path d="M25 21.125V26.375C25 30.75 23.25 32.5 18.875 32.5H13.625C9.25 32.5 7.5 30.75 7.5 26.375V21.125C7.5 16.75 9.25 15 13.625 15H18.875C23.25 15 25 16.75 25 21.125Z" stroke="#337354" stroke-width="1.5" stroke-linecap="round" stroke-linejoin="round"/>
<path d="M32.5 13.625V18.875C32.5 23.25 30.75 25 26.375 25H25V21.125C25 16.75 23.25 15 18.875 15H15V13.625C15 9.25 16.75 7.5 21.125 7.5H26.375C30.75 7.5 32.5 9.25 32.5 13.625Z" stroke="#337354" stroke-width="1.5" stroke-linecap="round" stroke-linejoin="round"/>
</svg>
